<?xml version="1.0" encoding="utf-8"?>
<!-- Generator: Adobe Illustrator 15.1.0, SVG Export Plug-In . SVG Version: 6.00 Build 0)  -->
<!DOCTYPE svg PUBLIC "-//W3C//DTD SVG 1.1//EN" "http://www.w3.org/Graphics/SVG/1.1/DTD/svg11.dtd">
<svg version="1.1" id="Layer_1" xmlns="http://www.w3.org/2000/svg" xmlns:xlink="http://www.w3.org/1999/xlink" x="0px" y="0px"
	 width="328.571px" height="360px" viewBox="0 0 328.571 360" enable-background="new 0 0 328.571 360" xml:space="preserve">
<path fill="#C61717" stroke="#020202" stroke-width="4" stroke-miterlimit="10" d="M256.293,170.143L168.071,22.477L79.85,170.143
	c-9.004,15.242-14.177,33.016-14.177,52.001c0,56.554,45.846,102.397,102.398,102.397S270.47,278.698,270.47,222.144
	C270.47,203.159,265.297,185.385,256.293,170.143z"/>
<path opacity="0.69" fill="#6B1C1C" d="M86.673,237.144c0-18.985,5.173-36.759,14.177-52.001l82.202-137.591l-14.98-25.075
	L79.85,170.143c-9.004,15.242-14.177,33.016-14.177,52.001c0,39.015,21.821,72.93,53.923,90.215
	C99.353,293.652,86.673,266.881,86.673,237.144z"/>
<ellipse transform="matrix(0.8421 -0.5393 0.5393 0.8421 -117.6172 158.6172)" fill="#F7BCBC" cx="212.077" cy="280.174" rx="11.161" ry="6.637"/>
</svg>
