<?xml version="1.0" encoding="utf-8"?>
<!-- Generator: Adobe Illustrator 15.1.0, SVG Export Plug-In . SVG Version: 6.00 Build 0)  -->
<!DOCTYPE svg PUBLIC "-//W3C//DTD SVG 1.1//EN" "http://www.w3.org/Graphics/SVG/1.1/DTD/svg11.dtd">
<svg version="1.1" id="Layer_1" xmlns="http://www.w3.org/2000/svg" xmlns:xlink="http://www.w3.org/1999/xlink" x="0px" y="0px"
	 width="374px" height="367px" viewBox="0 0 374 367" enable-background="new 0 0 374 367" xml:space="preserve">
<circle fill="#FACC70" stroke="#050000" stroke-width="3" stroke-miterlimit="10" cx="188.308" cy="179.186" r="160.535"/>
<path fill="#DE7A22" stroke="#070706" stroke-width="2" stroke-miterlimit="10" d="M307.335,179.642
	c-0.408-64.961-53.396-117.292-118.361-116.886C124.015,63.164,71.685,116.153,72.09,181.113
	c0.408,64.961,53.398,117.293,118.357,116.886C255.409,297.593,307.743,244.603,307.335,179.642z"/>
<g>
	<path fill="none" d="M188.97,250.077c-54.83,0.343-99.558-43.826-99.9-98.658c-0.345-54.831,43.827-99.559,98.657-99.902
		c54.83-0.342,99.559,43.829,99.899,98.661C287.973,205.005,243.802,249.733,188.97,250.077z"/>
	<text transform="matrix(0.7554 -0.6553 0.6553 0.7554 114.7183 83.2339)"><tspan x="0" y="0" font-family="'Gurajada'" font-size="54.5611">G</tspan><tspan x="22.449" y="-0.048" font-family="'Gurajada'" font-size="54.5611" rotate="12.904">A</tspan><tspan x="44.48" y="5.181" font-family="'Gurajada'" font-size="54.5611" rotate="24.88">S</tspan><tspan x="61.596" y="13.101" font-family="'Gurajada'" font-size="54.5611" rotate="35.821">T</tspan><tspan x="77.143" y="23.931" font-family="'Gurajada'" font-size="54.5611" rotate="48.097">O</tspan><tspan x="93.709" y="41.166" font-family="'Gurajada'" font-size="54.5611" rotate="64.669">W</tspan><tspan x="107.66" y="71.746" font-family="'Gurajada'" font-size="54.5611" rotate="81.673">N</tspan><tspan x="110.668" y="98.153" font-family="'Gurajada'" font-size="54.5611" rotate="90.963">	</tspan><tspan x="110.6" y="103.185" font-family="'Gurajada'" font-size="54.5611" rotate="93.853">	</tspan><tspan x="107.508" y="124.245" font-family="'Gurajada'" font-size="54.5611" rotate="106.164">	</tspan><tspan x="99.992" y="144.14" font-family="'Gurajada'" font-size="54.5611" rotate="118.546">	</tspan><tspan x="88.383" y="162.035" font-family="'Gurajada'" font-size="54.5611" rotate="131.506">	</tspan><tspan x="73.246" y="176.986" font-family="'Gurajada'" font-size="54.5611" rotate="143.051"> </tspan></text>
</g>
<g>
	<g>
		<path fill="#FCFCFC" d="M168.207,81.559c-1.973,0.266-4.452,1.832-2.934,4.012c0.396,0.569,2.265-0.091,1.789-0.773
			c-0.655-0.942-0.237-1.953,0.898-2.105c0.375-0.05,0.997-0.241,1.092-0.679C169.146,81.574,168.48,81.522,168.207,81.559
			L168.207,81.559z"/>
	</g>
</g>
<g>
	<g>
		<path fill="#FCFCFC" d="M205.561,79.18c-0.132,1.923,0.499,3.609,1.339,5.308c0.445-0.275,0.891-0.551,1.336-0.826
			c-1.102-0.087-1.773-1.684-2.083-2.561c-0.644,0.172-1.288,0.345-1.932,0.518c0.191,0.383,0.382,0.766,0.574,1.148
			c0.289,0.574,1.936,0.297,1.933-0.374c-0.002-0.749-0.065-1.368-0.383-2.057c-0.286-0.621-1.851-0.274-1.933,0.374
			c-0.05,0.387-0.161,0.758-0.192,1.148c0.621-0.167,1.242-0.333,1.863-0.499c-0.254-0.232-0.126-0.559-0.381-0.765
			c-0.55-0.444-2.346,0.319-1.791,0.768c0.165,0.133,0.166,0.569,0.381,0.765c0.402,0.368,1.81,0.162,1.863-0.499
			c0.032-0.391,0.143-0.761,0.192-1.148c-0.644,0.125-1.289,0.25-1.933,0.374c0.274,0.596,0.378,1.114,0.38,1.77
			c0.644-0.125,1.289-0.25,1.933-0.374c-0.192-0.382-0.383-0.766-0.574-1.148c-0.324-0.649-2.173-0.167-1.932,0.518
			c0.546,1.548,1.507,3.038,3.273,3.178c0.284,0.022,1.601-0.292,1.336-0.826c-0.785-1.589-1.46-3.212-1.336-5.021
			C207.552,78.129,205.606,78.505,205.561,79.18L205.561,79.18z"/>
	</g>
</g>
<polyline fill="#FCFCFC" points="156.206,70.131 214.849,68.735 228.334,142.741 233.382,260.944 141.496,259.66 143.664,166.48 
	155.481,71.032 167.127,63.569 "/>
<path fill="#050000" d="M138.325,173.883l5.084-0.141l-2.298,87.219l91.836,2.085L235,176.172l7.102-8.456L218.572,66.729
	c0,0-27.556-22.667-60.732,0l-21.353,106.153L138.325,173.883z"/>
<g>
	<path fill="#FCFCFC" d="M169.518,79.494c0.545-0.355,9.835-4.746,18.791-4.085c9.135,0.674,17.93,6.417,17.919,8.09
		c-0.02,3.311-1.007,152.999-1.007,152.999l5.779,3.996v4.4l-4.292-1.617L165.978,243h-4.208l-1.722,0.803l0.956-3.853l4.019-3.648
		l2.734-152.894C167.757,83.408,168.485,80.119,169.518,79.494z"/>
	<path fill="#050000" d="M169.465,79.409c3.632-1.78,7.505-2.959,11.466-3.671c1.982-0.339,3.996-0.528,6.011-0.491
		c2.016,0.035,4.021,0.329,5.977,0.803c3.899,0.984,7.675,2.542,11.017,4.814c0.815,0.594,1.648,1.186,2.248,2.065
		c0.069,0.116,0.134,0.238,0.172,0.383c0.04,0.162,0.021,0.292,0.025,0.412l-0.001,0.753l-0.002,1.505l-0.01,6.021l-0.037,48.167
		l-0.3,96.333l-0.326-0.624l5.906,3.979l0.391,0.228v0.408l-0.044,4.4l-0.025,1.103l-1.06-0.364l-4.362-1.518l0.257,0.045
		l-44.994-0.03l0.367-0.073l-1.72,0.723l-1.756,0.738l0.449-1.857l0.942-3.9l0.069-0.286l0.222-0.203l4.011-3.679l-0.322,0.714
		l0.676-38.227c0.186-12.742,0.556-25.482,0.854-38.223l1.288-38.219c0.401-12.739,0.15-25.48,1.15-38.221v-0.013l-0.176-0.01
		c0.169-0.716,0.287-1.418,0.547-2.106c0.132-0.343,0.232-0.682,0.412-1.008C168.967,79.959,169.125,79.631,169.465,79.409z
		 M169.57,79.58c-0.276,0.18-0.479,0.491-0.649,0.8c-0.17,0.314-0.312,0.646-0.438,0.984c-0.251,0.676-0.453,1.377-0.614,2.08
		l0.003-0.022c-0.146,12.744-0.341,25.486-0.396,38.231l-0.258,38.233c-0.158,12.743-0.244,25.488-0.514,38.229l-0.691,38.226
		l-0.008,0.428l-0.314,0.286l-4.027,3.661l0.291-0.489l-0.97,3.893l-1.307-1.12l1.725-0.71l0.182-0.075l0.186,0.218l45,0.568h0.137
		l0.124-0.172l4.346,1.436l-1.042,0.685l0.013-4.427l0.335,0.622l-5.827-4.02l-0.33-0.231l0.004-0.397l0.896-96.33l0.56-48.164
		l0.064-6.021l0.016-1.505l0.008-0.752c0.02-0.277-0.013-0.418-0.147-0.638c-0.527-0.794-1.354-1.415-2.148-1.998
		c-3.281-2.271-7.028-3.88-10.906-4.842c-1.943-0.472-3.935-0.763-5.933-0.798c-2-0.037-4.001,0.15-5.973,0.488
		C177.033,76.639,173.145,77.83,169.57,79.58z"/>
</g>
<path fill="#FCFCFC" stroke="#050505" stroke-width="2" stroke-miterlimit="10" d="M232.998,263.259l-1.883,3.315l2.382,22.744
	c0,0-26.129,6.463-29.747,7.264c-2.452,0.543-28,0.206-30.75-0.207s-30.453-8.86-30.453-8.86l0.912-20.52l-1.91-3.635l-0.639-1.209
	l1.691-0.656l3.155-0.282l15.581-8.275l-1.019-5.288l3.063-2.649h43.198l5.448,5.011l-0.164,3.403l18.528,10.377L232.998,263.259z"
	/>
<g>
	<path fill="#FCFCFC" d="M142.813,174.891c-0.285-0.859-2.632,0-2.632,0l-3.694-2.009c0,0,16.945-100.417,18.381-106.153
		c0,0,6.893-10.617,34.15-10.617c0,0,26.112,2.583,29.555,10.617l23.529,100.988l-3.441,3.789L235.789,173h-2.294L206.24,79.982
		c0,0-16.162-17.289-39.881-1.223L142.813,174.891z"/>
	<path fill="#050000" d="M142.228,177.252l-0.791-1.765c-0.006-0.015-0.034-0.082-0.023-0.054c0.037,0.103,0.133,0.233,0.175,0.281
		c0.086,0.104,0.19,0.175,0.258,0.215c0.149,0.081,0.202,0.076,0.205,0.079c0.002-0.005-0.146-0.007-0.297,0.016
		c-0.156,0.021-0.339,0.058-0.524,0.104c-0.178,0.045-0.395,0.11-0.538,0.16l-0.647,0.226l-0.577-0.315l-3.688-2.02l-0.93-0.509
		l0.179-1.035l9.174-53.084l4.646-26.533l2.36-13.263l1.207-6.63c0.421-2.228,0.793-4.38,1.31-6.683l0.045-0.202l0.109-0.153
		c0.585-0.819,1.124-1.338,1.739-1.917c0.604-0.555,1.238-1.06,1.89-1.534c1.306-0.944,2.688-1.749,4.108-2.455
		c2.846-1.408,5.844-2.435,8.881-3.188C176.587,55.502,182.828,55,189.018,55h0.059l0.047,0.024c2.725,0.301,5.39,0.716,8.066,1.201
		c2.67,0.489,5.328,1.069,7.961,1.786c2.63,0.723,5.243,1.573,7.766,2.75c1.257,0.597,2.496,1.276,3.652,2.144
		c1.143,0.868,2.254,1.95,2.908,3.436l0.033,0.077l0.021,0.088l23.247,101.053l0.079,0.344l-0.229,0.265l-3.452,4.007l-0.073,0.085
		l-0.093,0.056l-2.876,1.652L235.973,174h-0.184l-2.294,0.057l-0.499,0.03l-0.138-0.46l-26.994-93.314l0.089,0.16
		c-2.5-2.491-5.602-4.465-8.879-5.863c-3.294-1.396-6.854-2.164-10.435-2.211c-3.583-0.059-7.162,0.601-10.547,1.793
		c-3.391,1.191-6.591,2.899-9.579,4.909l0.113-0.162l-23.813,95.951L142.228,177.252z M143.206,173.272l22.886-94.464l0.025-0.103
		l0.088-0.06c3.008-2.047,6.242-3.796,9.685-5.027c3.437-1.23,7.089-1.926,10.758-1.886c3.667,0.029,7.323,0.798,10.707,2.21
		c3.38,1.428,6.523,3.39,9.173,6l0.06,0.06l0.029,0.097l27.516,93.169l-0.637-0.477l2.294-0.006l-0.345,0.095l2.866-1.731
		l-0.166,0.141l3.431-4.027l-0.149,0.608L217.615,66.952l0.054,0.164c-0.438-0.993-1.298-1.879-2.293-2.619
		c-1.001-0.743-2.137-1.362-3.311-1.911c-2.363-1.087-4.892-1.897-7.45-2.583c-2.563-0.683-5.172-1.233-7.797-1.699
		c-2.621-0.46-5.28-0.849-7.905-1.124l0.105,0.005c-6.063,0.025-12.142,0.545-17.973,2.011c-2.908,0.737-5.751,1.716-8.398,3.045
		c-1.321,0.666-2.592,1.418-3.768,2.278c-0.586,0.431-1.15,0.886-1.673,1.372c-0.505,0.464-1.048,1.046-1.352,1.478l0.154-0.355
		c-0.454,2.081-0.842,4.354-1.24,6.54l-1.167,6.625l-2.285,13.268L146.82,120l-8.876,53.128l-0.751-1.544l3.7,1.998l-1.223-0.09
		c0.301-0.107,0.536-0.178,0.814-0.252c0.271-0.07,0.55-0.133,0.86-0.177c0.316-0.04,0.642-0.08,1.112-0.022
		C142.664,173.072,142.907,173.128,143.206,173.272z"/>
</g>
<path d="M140.181,174.891l18.435-100.417c0,0,23.238-18.075,56.232,0l23.812,97.259l1.034-1.203l-23.125-99.499
	c0,0-25.537-21.803-58.528-1.436l-19.715,104.287L140.181,174.891z"/>
<path fill="none" stroke="#050000" stroke-miterlimit="10" d="M218.572,66.729c0,0,2.157,2.294-2.003,4.303
	c0,0,0.86,2.294-1.72,3.442c0,0-2.968,5.355-8.608,5.737"/>
<path fill="none" stroke="#050000" stroke-miterlimit="10" d="M160.815,74.666c0,0,3.51,3.89,6.312,3.251"/>
<g>
	<path fill="#020202" d="M194,85.42c-6-1.353-9-0.882-15,0.281v22.55c7-1.023,10-0.755,15,0.034V85.42z"/>
	<path fill="#020202" d="M174,88.273c-2,1.882-3,3.779-3,3.779v20.867c1-1.144,2-2.067,3-2.807V88.273z"/>
	<path fill="#020202" d="M197,87.683v22.194c5,1.447,6,3.042,6,3.042V92.17C202,90.276,199,88.805,197,87.683z"/>
</g>
<g>
	<path fill="#020202" d="M175,120.742c-3,1.829-4,4.029-4,4.029v21.092c1-0.979,2-1.739,4-2.329V120.742z"/>
	<path fill="#020202" d="M197,120.996v22.372c5,1.451,6,3.407,6,3.407v-20.978C202,123.704,198,122.142,197,120.996z"/>
	<path fill="#020202" d="M194,119.355c-6-1.53-9-1.168-15-0.112v23.311c7-1.001,10-0.845,15-0.192V119.355z"/>
</g>
<g>
	<path fill="#020202" d="M194,187.478c-5-0.608-8-0.805-15,0.109v23.623c5-0.425,10-0.68,15-0.296V187.478z"/>
	<path fill="#020202" d="M175,188.642c-1,0.54-2.171,0.786-5,1.654v22.195c0,0,3-0.251,5-0.734V188.642z"/>
	<path fill="#020202" d="M197,188.384v23.104c0-0.051,1.619-0.53,5.86,1.626l-0.01-22.307C202.85,190.808,202,189.453,197,188.384z"
		/>
</g>
<g>
	<path fill="#020202" d="M175,156.558c-2,1.214-5,2.452-5,2.452v19.325c2.829-0.363,5-0.667,5-0.927V156.558z"/>
	<path fill="#020202" d="M197,156.661v20.425c2,0.587,5,1.248,5,1.248v-19.429C199,158.005,198,157.271,197,156.661z"/>
	<path fill="#020202" d="M194,155.158c-6-1.377-10-1.018-15-0.09v21.651c7-0.704,10-0.638,15-0.286V155.158z"/>
</g>
<polygon fill="#FFFFFF" points="208,195.356 212,200.328 212,219.073 208,215.82 "/>
<path fill="#FFFFFF" d="M216.41,209.565l-1.41-2.438v16.258c0,0,1.947,2.199,1.664,1.912
	C216.374,225.011,216.41,209.565,216.41,209.565z"/>
<polygon fill="#FFFFFF" points="219.595,215.13 221.028,217.317 220.539,230.048 219.116,228.697 "/>
<polygon fill="#FFFFFF" points="224.464,222.42 225.134,223.95 224.798,235.713 223.891,234.279 "/>
<polygon fill="#FFFFFF" points="227.662,226.055 228.334,227.323 227.998,237.722 227.186,237.243 "/>
<polygon fill="#FFFFFF" points="229.671,184.067 230.34,185.162 230.007,194.443 229.29,193.392 "/>
<polygon fill="#FFFFFF" points="208,168.386 212,172.664 212,188.794 208,185.998 "/>
<path fill="#FFFFFF" d="M216.448,184.791L215,182.693v13.989c0,0,1.97,1.893,1.682,1.646
	C216.396,198.081,216.448,184.791,216.448,184.791z"/>
<polygon fill="#FFFFFF" points="223.74,197.899 225.177,199.753 224.688,210.55 223.263,209.403 "/>
<polygon fill="#FFFFFF" points="223.612,146.337 224.282,147.703 223.946,158.196 223.039,156.915 "/>
<polygon fill="#FFFFFF" points="227.383,206.693 228.053,207.759 227.718,216.495 226.906,216.093 "/>
<polygon fill="#FFFFFF" points="231.392,212.999 232.062,213.943 231.729,221.94 231.009,221.034 "/>
<polygon fill="#FFFFFF" points="208,140.271 212,144.709 212,161.439 208,158.536 "/>
<path fill="#FFFFFF" d="M217.271,157.002L215,154.629v15.817c0,0,2.379,2.141,2.093,1.86
	C216.803,172.028,217.271,157.002,217.271,157.002z"/>
<polygon fill="#FFFFFF" points="219.315,164.928 220.747,167.01 220.26,179.122 218.84,177.837 "/>
<polygon fill="#FFFFFF" points="222.809,172.742 223.479,173.949 223.145,183.843 222.334,183.388 "/>
<polygon fill="#FFFFFF" points="225.818,179.339 226.488,180.379 226.153,189.21 225.436,188.209 "/>
<polygon fill="#FFFFFF" points="208,107.563 212,112.001 212,128.731 208,125.829 "/>
<polygon fill="#FFFFFF" points="216,125.821 218.253,128.34 217.617,139.798 216,138.583 "/>
<polygon fill="#FFFFFF" points="220.179,138.438 220.804,139.834 220.492,150.557 219.643,149.249 "/>
<polygon fill="#FFFFFF" points="226.382,155.898 227.007,157.027 226.695,166.267 225.934,165.842 "/>
<polygon fill="#FFFFFF" points="229.266,165.121 229.891,166.096 229.561,174.341 228.892,173.404 "/>
<polygon fill="#FFFFFF" points="165,192.857 162,196.429 162,212.818 165,210.531 "/>
<path fill="#FFFFFF" d="M157.422,201.336l1.578-2.431v16.201c0,0-1.895,2.191-1.641,1.903
	C157.616,216.725,157.422,201.336,157.422,201.336z"/>
<polygon fill="#FFFFFF" points="153,204.48 151.442,207.747 151.579,222.611 153,221.035 "/>
<polygon fill="#FFFFFF" points="148.092,209.151 147.375,211.014 147.733,225.315 148.713,223.571 "/>
<polygon fill="#FFFFFF" points="142.794,205.771 142.196,207.037 142.495,217.396 143.219,216.92 "/>
<path fill="#FFFFFF" d="M162.411,167.656l1.589-2.093v13.94c0,0-1.898,1.885-1.645,1.638
	C162.609,180.896,162.411,167.656,162.411,167.656z"/>
<polygon fill="#FFFFFF" points="159,174.039 157.43,176.655 157.574,188.552 159,187.291 "/>
<polygon fill="#FFFFFF" points="153.284,179.723 152.008,181.568 152.443,192.326 153.708,191.186 "/>
<polygon fill="#FFFFFF" points="148.731,185.142 148.133,186.501 148.433,196.957 149.242,195.682 "/>
<polygon fill="#FFFFFF" points="145.262,190.478 144.664,191.539 144.964,200.245 145.687,199.843 "/>
<path fill="#FFFFFF" d="M162.16,137.914l1.84-2.364v15.746c0,0-2.023,2.129-1.771,1.852
	C162.484,152.869,162.16,137.914,162.16,137.914z"/>
<polygon fill="#FFFFFF" points="159,149.245 157.18,152.053 157.452,164.818 159,163.463 "/>
<polygon fill="#FFFFFF" points="153.989,159.064 152.874,160.878 153.253,171.438 154.362,170.315 "/>
<path fill="#FFFFFF" d="M163.714,104.774l1.286,0.081v14.748c0,0-1.569-0.298-1.356-0.559
	C163.856,118.784,163.714,104.774,163.714,104.774z"/>
<polygon fill="#FFFFFF" points="161,116.121 159.729,116.335 159.926,127.742 161,128.825 "/>
<polygon fill="#FFFFFF" points="156.902,129.423 155.854,133.416 156.212,143.305 157.252,139.962 "/>
<polygon fill="#FFFFFF" points="153.702,138.91 153.146,141.638 153.426,149.548 154.18,146.885 "/>
<polygon fill="#FFFFFF" points="151,149.52 150.446,148.653 150.724,155.47 151.398,156.855 "/>
<polygon fill="#FFFFFF" points="149.899,167.258 149.343,166.278 149.635,172.36 150.232,173.368 "/>
<polyline fill="none" stroke="#050000" stroke-width="2" stroke-miterlimit="10" points="234,174 234,214.379 232.919,260.388 
	214,249.786 214,247.554 211.459,244.396 "/>
<polyline fill="none" stroke="#050000" stroke-width="2" stroke-miterlimit="10" points="143.409,173.742 141.496,259.66 
	157.203,249.485 156.689,246.328 160.047,243.89 "/>
<path fill="none" stroke="#050000" stroke-width="2" stroke-miterlimit="10" d="M236.939,218.877"/>
<g>
	<path fill="#020202" d="M194,220.215c-5-0.471-10-0.622-15,0.088v18.356c5-0.333,10-0.53,15-0.233V220.215z"/>
	<path fill="#020202" d="M176,221.12c-1,0.421-3.171,0.951-6,1.625v17.08c0,0,3-0.369,6-0.745V221.12z"/>
	<path fill="#020202" d="M195,220.922v17.95c2,0.351,4,0.874,7,1.629v-17.756C202,222.745,199,221.752,195,220.922z"/>
</g>
<polygon fill="#FFFFFF" points="208,224.169 212,227.489 212,240.007 208,237.835 "/>
<polygon fill="#FFFFFF" points="219,190.843 221,193.241 221,204.25 219,202.715 "/>
<path fill="#FFFFFF" d="M216.114,235.141L215,233.317v12.157c0,0,1.761,1.644,1.482,1.431
	C216.206,246.691,216.114,235.141,216.114,235.141z"/>
<polygon fill="#FFFFFF" points="219,237.367 220.446,239.579 220.199,249.634 219,248.564 "/>
<polygon fill="#FFFFFF" points="223.084,241.658 224.469,243.29 223.999,252.783 222.62,251.776 "/>
<polygon fill="#FFFFFF" points="229.86,231.119 230.509,232.072 230.182,239.396 229.305,238.503 "/>
<polygon fill="#FFFFFF" points="226.99,246.566 227.636,247.514 227.312,255.269 226.524,254.914 "/>
<polygon fill="#FFFFFF" points="228.933,248.815 229.58,249.634 229.255,256.553 228.562,255.77 "/>
<polygon fill="#FFFFFF" points="164,224.315 163,227.268 163,238.386 164,236.458 "/>
<polygon fill="#FFFFFF" points="158,227.334 157,230.211 157,243.416 158,241.573 "/>
<polygon fill="#FFFFFF" points="154,232.104 152.203,234.591 152.424,245.891 154,244.693 "/>
<polygon fill="#FFFFFF" points="149.284,237.19 147.929,239.025 148.39,249.694 149.733,248.562 "/>
<polygon fill="#FFFFFF" points="144.256,214.825 143.493,216.263 143.875,227.334 144.912,225.981 "/>
<polygon fill="#FFFFFF" points="145.074,241.703 144.442,242.767 144.756,251.482 145.525,251.083 "/>
<polygon fill="#FFFFFF" points="147.181,170.695 146.547,171.301 146.864,176.436 147.542,175.854 "/>
<path fill="none" stroke="#020202" stroke-miterlimit="10" d="M142.5,256.37c0,0-3,4.13,0,4.13h3.203l15.586-8.216l-1.024-4.737
	l3.065-2.047h43.198l5.449,4.574l-0.164,3.201l18.527,10.451l3.155-1.669l-0.817-1.696L213.5,249.485v-2.296
	c0,0-4.488-3.814-6.832-3.825c-2.346-0.012-44.948-0.191-44.948-0.191s-4.22,1.64-4,3.024l0.021,3.288L142.5,256.37z"/>
<polygon fill="#020202" points="179,266 192,266 192,297.693 179,297.408 "/>
<rect x="176" y="253" fill="#020202" width="18" height="6"/>
<polygon fill="#020202" points="161.245,264.213 164.117,267.174 169.281,265 200.841,265 206.769,267.449 209.676,265.64 
	206.58,263.438 203.708,260 168.502,260 164.117,263.432 "/>
<g>
	<path fill="#020202" d="M196.407,269C195.891,269,195.891,269,196.407,269H196v29.913l3-0.706V269H196.407z"/>
	<g>
		<polygon fill="#020202" points="170,269 170,296.429 173,297.207 173,269 		"/>
	</g>
</g>
<rect x="155" y="261" fill="#020202" width="2" height="32"/>
<rect x="212" y="261" fill="#020202" width="2" height="34"/>
<rect x="225" y="271" fill="#020202" width="1" height="22"/>
<rect x="147" y="268" fill="#020202" width="2" height="22"/>
<g>
	<path fill="#FCFCFC" d="M169.518,79.494c0,0,18.544-10.375,36.242,2.631"/>
	<path fill="#050000" d="M169.518,79.494c2.653-1.838,5.709-3.067,8.854-3.889c3.153-0.822,6.451-1.143,9.73-0.97
		c3.276,0.21,6.534,0.924,9.545,2.209c3.015,1.268,5.788,3.058,8.113,5.28c-2.817-1.549-5.681-2.874-8.653-3.816
		c-2.972-0.931-6.031-1.512-9.123-1.678c-3.09-0.201-6.205,0.013-9.294,0.496C175.603,77.639,172.534,78.401,169.518,79.494z"/>
</g>
<g>
	<g>
		<path fill="#050000" d="M161.517,252.024c-0.165-0.668-0.085-1.306-0.053-1.982c0.035-0.728-0.301-1.253-0.866-1.683
			c-0.302-0.229-2.067,0.14-1.874,0.596c0.185,0.438,0.577,0.827,0.513,1.337c-0.067,0.531,1.849,0.159,1.909-0.324
			c0.079-0.63-0.257-0.979-0.49-1.53c-0.625,0.198-1.249,0.397-1.874,0.596c1.198,0.909,0.493,2.248,0.803,3.509
			C159.7,253.011,161.636,252.51,161.517,252.024L161.517,252.024z"/>
	</g>
</g>
<g>
	<g>
		<path fill="#050000" d="M229.417,263.203c0.858-0.089,1.688-0.303,2.534-0.462c0.354-0.066,0.779-0.177,1.056-0.424
			c0.334-0.299-0.298-0.305-0.452-0.299c-1.167,0.044-2.331,0.508-3.231,1.246c-0.347,0.285,0.307,0.312,0.452,0.299
			c0.438-0.04,0.946-0.172,1.294-0.457c0.221-0.182,0.396-0.323,0.644-0.332c0.201-0.241,0.402-0.481,0.604-0.723
			c-0.686,0.129-1.362,0.324-2.058,0.396c-0.427,0.045-0.963,0.161-1.294,0.457C228.637,263.198,229.255,263.22,229.417,263.203
			L229.417,263.203z"/>
	</g>
</g>
<path fill="none" d="M91.562,284.409c0,0,28.958,42.652,94.29,46.701c0,0,67.751,4.113,105.601-51.635"/>
<text transform="matrix(0.7058 0.6138 -0.6562 0.7546 95.7651 290.8359)" font-family="'Gurajada'" font-size="51.3517">M</text>
<text transform="matrix(0.8227 0.445 -0.4758 0.8796 120.7583 311.0166)" font-family="'Gurajada'" font-size="51.3517">E</text>
<text transform="matrix(0.8903 0.2867 -0.3066 0.9519 140.0342 321.1807)" font-family="'Gurajada'" font-size="51.3517">D</text>
<text transform="matrix(0.9219 0.1579 -0.1688 0.9856 164.835 328.4102)" font-family="'Gurajada'" font-size="51.3517">I</text>
<text transform="matrix(0.9339 0.0512 -0.0547 0.9985 177.9492 330.667)" font-family="'Gurajada'" font-size="51.3517">C</text>
<text transform="matrix(0.9279 -0.1178 0.1259 0.992 199.9126 330.7344)" font-family="'Gurajada'" font-size="51.3517">I</text>
<text transform="matrix(0.9012 -0.2505 0.2678 0.9635 213.6909 329.1924)" font-family="'Gurajada'" font-size="51.3517">N</text>
<text transform="matrix(0.8298 -0.4316 0.4614 0.8872 241.0078 320.9307)" font-family="'Gurajada'" font-size="51.3517">A</text>
<text transform="matrix(0.7319 -0.5824 0.6227 0.7825 262.8623 308.7607)" font-family="'Gurajada'" font-size="51.3517">L</text>
<text transform="matrix(0.6136 -0.7059 0.7547 0.656 277.7188 296.5137)" font-family="'Gurajada'" font-size="51.3517">S</text>
<path fill="none" stroke="#CFE2DF" stroke-width="4" stroke-miterlimit="10" d="M140.215,289.045"/>
<path fill="none" stroke="#CFE2DF" stroke-width="5" stroke-miterlimit="10" d="M243.045,327.546"/>
<path fill="none" stroke="#CFE2DF" stroke-width="5" stroke-miterlimit="10" d="M138.095,327.546"/>
<path fill="#020202" d="M174.943,268"/>
</svg>
